<svg width="456" height="74" viewBox="0 0 456 74" fill="none" xmlns="http://www.w3.org/2000/svg">
<path d="M0 9.57715H27.1729C31.2744 9.57715 34.8291 10.0101 37.8369 10.876C40.8447 11.7191 43.3398 12.9495 45.3223 14.5674C47.3047 16.1852 48.7744 18.1562 49.7314 20.4805C50.7113 22.8047 51.2012 25.4365 51.2012 28.376C51.2012 30.3584 50.9619 32.2497 50.4834 34.0498C50.0049 35.8271 49.2643 37.4678 48.2617 38.9717C47.2819 40.4756 46.04 41.82 44.5361 43.0049C43.0322 44.167 41.2663 45.1354 39.2383 45.9102L50.8594 63H37.5977L27.5488 47.8242H27.2412L10.835 47.79V63H0V9.57715ZM27.4463 38.4248C29.4971 38.4248 31.2858 38.1855 32.8125 37.707C34.362 37.2285 35.6494 36.5563 36.6748 35.6904C37.723 34.8245 38.4977 33.7764 38.999 32.5459C39.5231 31.2926 39.7852 29.9027 39.7852 28.376C39.7852 25.391 38.7598 23.0895 36.709 21.4717C34.6582 19.8311 31.5706 19.0107 27.4463 19.0107H10.835V38.4248H27.4463Z" fill="#EB3F5E"/>
<path d="M60.874 42.6973C60.874 39.9629 61.4323 37.3538 62.5488 34.8701C63.6654 32.3636 65.2718 30.1533 67.3682 28.2393C69.4645 26.3252 72.028 24.7985 75.0586 23.6592C78.112 22.5199 81.5755 21.9502 85.4492 21.9502C89.3001 21.9502 92.7637 22.5312 95.8398 23.6934C98.9388 24.8327 101.559 26.4049 103.701 28.4102C105.866 30.4154 107.518 32.7738 108.657 35.4854C109.819 38.1969 110.4 41.1022 110.4 44.2012C110.4 44.5885 110.389 45.0101 110.366 45.4658C110.366 45.8988 110.343 46.2975 110.298 46.6621H72.1533C72.5863 47.8698 73.2812 48.9749 74.2383 49.9775C75.2181 50.9801 76.4372 51.846 77.8955 52.5752C79.3538 53.3044 81.04 53.874 82.9541 54.2842C84.8682 54.6715 86.9873 54.8652 89.3115 54.8652C91.6357 54.8652 93.9486 54.626 96.25 54.1475C98.5514 53.6462 100.75 53.0195 102.847 52.2676L106.265 59.9922C104.943 60.6074 103.599 61.1543 102.231 61.6328C100.887 62.0885 99.4743 62.4759 97.9932 62.7949C96.5348 63.0911 94.9967 63.319 93.3789 63.4785C91.7839 63.638 90.0977 63.7178 88.3203 63.7178C83.7858 63.7178 79.8096 63.1709 76.3916 62.0771C72.9736 60.9834 70.1139 59.4909 67.8125 57.5996C65.5111 55.7083 63.7793 53.4867 62.6172 50.9346C61.4551 48.3825 60.874 45.6367 60.874 42.6973ZM99.668 38.7666C99.3034 37.6501 98.7337 36.6133 97.959 35.6562C97.207 34.6764 96.2614 33.8333 95.1221 33.127C93.9827 32.3978 92.6611 31.8281 91.1572 31.418C89.6533 31.0078 88.0013 30.8027 86.2012 30.8027C84.2871 30.8027 82.5439 31.0192 80.9717 31.4521C79.3994 31.8851 78.0208 32.4661 76.8359 33.1953C75.651 33.9245 74.6598 34.7676 73.8623 35.7246C73.0876 36.6816 72.5179 37.6956 72.1533 38.7666H99.668Z" fill="#EB3F5E"/>
<path d="M170.096 9.57715H181.922L196.414 44.0645L199.764 52.4043L202.396 44.0645L207.728 31.4863L198.123 9.57715H209.266L213.196 20.002L216.854 9.57715H227.996L218.392 31.4863L223.826 44.3379L227.107 52.4043L229.637 44.2012L244.197 9.57715H256.023L232.439 63H221.707L216.956 52.4043L213.094 42.1162L209.231 52.4043L204.412 63H193.68L170.096 9.57715Z" fill="#9CA4AB"/>
<path d="M261.116 50.2852C261.116 48.3483 261.538 46.5824 262.381 44.9873C263.224 43.3923 264.489 42.0251 266.175 40.8857C267.861 39.7236 269.957 38.835 272.464 38.2197C274.993 37.5817 277.933 37.2627 281.282 37.2627C283.766 37.2627 286.375 37.445 289.109 37.8096C291.867 38.1742 294.703 38.7324 297.62 39.4844C297.506 38.2083 297.119 37.0348 296.458 35.9639C295.797 34.8701 294.874 33.9359 293.689 33.1611C292.527 32.3636 291.115 31.7484 289.451 31.3154C287.811 30.8825 285.942 30.666 283.846 30.666C282.706 30.666 281.453 30.7344 280.086 30.8711C278.719 31.0078 277.306 31.2129 275.848 31.4863C274.389 31.7598 272.942 32.1016 271.507 32.5117C270.094 32.9219 268.772 33.4118 267.542 33.9814L264.466 25.6758C265.993 25.1289 267.622 24.6276 269.354 24.1719C271.108 23.7161 272.897 23.3288 274.72 23.0098C276.543 22.668 278.366 22.4059 280.188 22.2236C282.011 22.0413 283.777 21.9502 285.486 21.9502C293.029 21.9502 298.634 23.8757 302.303 27.7266C305.971 31.5775 307.806 37.4792 307.806 45.4316V63H297.688V59.2061C296.64 59.8213 295.49 60.4023 294.236 60.9492C293.006 61.4961 291.661 61.9746 290.203 62.3848C288.745 62.7949 287.173 63.1139 285.486 63.3418C283.823 63.5924 282.057 63.7178 280.188 63.7178C277.044 63.7178 274.275 63.376 271.883 62.6924C269.513 62.0088 267.531 61.0632 265.936 59.8555C264.34 58.6478 263.133 57.235 262.312 55.6172C261.515 53.9766 261.116 52.1992 261.116 50.2852ZM271.78 49.9434C271.78 50.6042 271.951 51.2422 272.293 51.8574C272.635 52.4499 273.182 52.9854 273.934 53.4639C274.686 53.9196 275.643 54.2956 276.805 54.5918C277.99 54.8652 279.414 55.002 281.077 55.002C282.854 55.002 284.575 54.8424 286.238 54.5234C287.902 54.2044 289.451 53.7829 290.887 53.2588C292.322 52.7347 293.621 52.1309 294.783 51.4473C295.945 50.7637 296.914 50.0573 297.688 49.3281V47.5508C296.139 47.1178 294.601 46.7533 293.074 46.457C291.57 46.1608 290.123 45.9329 288.733 45.7734C287.366 45.5911 286.067 45.4658 284.837 45.3975C283.629 45.3291 282.57 45.2949 281.658 45.2949C279.767 45.2949 278.195 45.4202 276.941 45.6709C275.688 45.9215 274.674 46.2633 273.899 46.6963C273.125 47.1064 272.578 47.5964 272.259 48.166C271.94 48.7357 271.78 49.3281 271.78 49.9434Z" fill="#9CA4AB"/>
<path d="M327.288 30.2559H317.547V22.668H327.288V10.124H337.405V22.668H347.146V30.2559H337.405V63H327.288V30.2559Z" fill="#9CA4AB"/>
<path d="M353.709 42.9365C353.709 39.9743 354.244 37.2171 355.315 34.665C356.409 32.0902 357.993 29.8685 360.066 28C362.163 26.1087 364.715 24.6276 367.723 23.5566C370.753 22.4857 374.205 21.9502 378.079 21.9502C379.765 21.9502 381.463 22.0527 383.172 22.2578C384.881 22.4629 386.521 22.7591 388.094 23.1465C389.689 23.5111 391.181 23.9554 392.571 24.4795C393.961 24.9808 395.169 25.5391 396.194 26.1543L391.512 33.7764C389.301 32.751 387.205 31.999 385.223 31.5205C383.263 31.042 381.269 30.8027 379.241 30.8027C376.917 30.8027 374.832 31.1104 372.986 31.7256C371.141 32.318 369.568 33.1611 368.27 34.2549C366.993 35.3258 366.014 36.6019 365.33 38.083C364.669 39.5413 364.339 41.1364 364.339 42.8682C364.339 44.5999 364.692 46.2064 365.398 47.6875C366.128 49.1458 367.142 50.4105 368.44 51.4814C369.762 52.5296 371.346 53.3613 373.191 53.9766C375.06 54.569 377.133 54.8652 379.412 54.8652C381.919 54.8652 384.277 54.512 386.487 53.8057C388.72 53.0993 390.794 52.1536 392.708 50.9688L397.391 58.5908C396.183 59.32 394.873 60.0036 393.46 60.6416C392.047 61.2568 390.532 61.7923 388.914 62.248C387.319 62.7038 385.633 63.057 383.855 63.3076C382.101 63.5811 380.278 63.7178 378.387 63.7178C374.536 63.7178 371.084 63.1937 368.03 62.1455C364.977 61.0973 362.391 59.6504 360.271 57.8047C358.152 55.9362 356.523 53.7373 355.384 51.208C354.267 48.6787 353.709 45.9215 353.709 42.9365Z" fill="#9CA4AB"/>
<path d="M408.294 6.33008H418.411V25.7441C420.53 24.582 422.889 23.6592 425.486 22.9756C428.107 22.292 430.853 21.9502 433.724 21.9502C437.05 21.9502 440.035 22.4401 442.679 23.4199C445.345 24.3997 447.601 25.8125 449.446 27.6582C451.292 29.4811 452.705 31.7028 453.685 34.3232C454.687 36.9437 455.188 39.8945 455.188 43.1758V63H445.105V43.5859C445.105 41.6719 444.798 39.9287 444.183 38.3564C443.567 36.7614 442.667 35.3942 441.482 34.2549C440.298 33.1156 438.851 32.2383 437.142 31.623C435.455 30.985 433.541 30.666 431.399 30.666C428.825 30.666 426.432 31.0762 424.222 31.8965C422.011 32.7168 420.075 33.7536 418.411 35.0068V63H408.294V6.33008Z" fill="#9CA4AB"/>
<path d="M142.412 0C134.132 0 127.412 6.72 127.412 15C127.412 23.28 134.132 30 142.412 30C150.692 30 157.412 23.28 157.412 15C157.412 6.72 150.692 0 142.412 0ZM139.412 21.75V8.25L148.412 15L139.412 21.75Z" fill="#EB3F5E"/>
<path d="M142.412 74C150.692 74 157.412 67.28 157.412 59C157.412 50.72 150.692 44 142.412 44C134.132 44 127.412 50.72 127.412 59C127.412 67.28 134.132 74 142.412 74ZM145.412 52.25V65.75L136.412 59L145.412 52.25Z" fill="#EB3F5E"/>
</svg>
